<svg width="44" height="44" viewBox="0 0 44 44" fill="none" xmlns="http://www.w3.org/2000/svg">
<g clip-path="url(#clip0_134_38)">
<path d="M11.1137 0.0864303C11.3608 0.234089 11.3608 0.234089 11.553 0.434649C11.6244 0.505807 11.6957 0.576964 11.7693 0.650277C11.8358 0.718783 11.9023 0.787288 11.9708 0.857869C12.0768 0.953862 12.1839 1.04861 12.2923 1.1418C12.3737 1.21274 12.3737 1.21274 12.4567 1.28511C12.8718 1.6439 13.2887 2.00057 13.7056 2.35726C13.9561 2.57161 14.2063 2.78618 14.4566 3.00076C14.8247 2.88003 15.0455 2.7043 15.3245 2.43825C15.408 2.36005 15.4917 2.28204 15.5756 2.2042C15.6388 2.14547 15.6388 2.14547 15.7034 2.08555C15.9634 1.84904 16.2371 1.62981 16.5117 1.41067C16.708 1.25164 16.8989 1.08998 17.089 0.92383C17.2008 0.828611 17.3126 0.733408 17.4245 0.638224C17.4757 0.592162 17.5268 0.5461 17.5796 0.498643C17.9329 0.202781 18.1694 0.137337 18.6255 0.15003C18.945 0.184917 19.2147 0.290793 19.5071 0.419582C19.5678 0.445201 19.6284 0.470821 19.691 0.497216C19.818 0.551243 19.9448 0.605949 20.0712 0.661306C20.2638 0.745374 20.4574 0.826777 20.6512 0.907926C20.7752 0.961065 20.8992 1.01435 21.0232 1.06781C21.109 1.10386 21.109 1.10386 21.1966 1.14064C21.6141 1.32575 21.9765 1.5453 22.1612 1.97924C22.266 2.61999 22.3086 3.26349 22.3428 3.91119C22.353 4.10341 22.3642 4.29556 22.3755 4.48772C22.4157 5.19272 22.4388 5.89438 22.4281 6.60081C22.475 6.59906 22.5218 6.59732 22.5701 6.59553C23.368 6.58033 24.1583 6.65508 24.9519 6.72846C25.1986 6.75088 25.4453 6.77127 25.6921 6.79166C25.8502 6.80604 26.0083 6.82054 26.1664 6.83518C26.2395 6.84091 26.3127 6.84664 26.388 6.85255C26.8367 6.89702 27.1365 6.97827 27.4853 7.28653C27.6248 7.52294 27.6248 7.52294 27.7297 7.79312C27.769 7.89218 27.8084 7.99123 27.8489 8.09329C27.888 8.19655 27.9271 8.2998 27.9674 8.40619C28.0271 8.55759 28.0271 8.55759 28.088 8.71205C28.2037 9.00748 28.3165 9.30385 28.4282 9.60085C28.4625 9.69132 28.4969 9.78179 28.5323 9.87501C28.5634 9.95845 28.5946 10.0419 28.6267 10.1279C28.6541 10.201 28.6814 10.2742 28.7096 10.3496C28.8101 10.6673 28.805 10.8303 28.6853 11.1437C28.5112 11.3662 28.3249 11.5692 28.1295 11.7732C27.9231 11.9912 27.7362 12.2159 27.5496 12.4509C27.1885 12.8981 26.8026 13.3177 26.4077 13.7349C26.1799 13.9763 25.9624 14.2143 25.771 14.4866C25.9019 14.7804 26.0747 15.0059 26.2799 15.2527C26.3832 15.3772 26.3832 15.3772 26.4885 15.5042C26.7593 15.8272 27.0318 16.1487 27.3046 16.4701C28.6356 18.0396 28.6356 18.0396 28.6208 18.6533C28.5876 18.9742 28.4814 19.2436 28.3521 19.5371C28.3265 19.5978 28.3009 19.6585 28.2745 19.721C28.2205 19.8481 28.1658 19.9748 28.1104 20.1013C28.0264 20.2939 27.945 20.4874 27.8638 20.6812C27.8107 20.8053 27.7574 20.9293 27.7039 21.0532C27.6799 21.1105 27.6559 21.1677 27.6311 21.2267C27.4463 21.6434 27.2164 21.9926 26.7996 22.201C26.6545 22.2185 26.5088 22.2315 26.3631 22.2422C26.2721 22.2491 26.1812 22.2559 26.0875 22.263C25.989 22.2701 25.8905 22.2771 25.7891 22.2844C25.6885 22.2919 25.5879 22.2994 25.4842 22.3071C25.162 22.331 24.8397 22.3544 24.5174 22.3778C24.2993 22.3939 24.0812 22.41 23.8632 22.4262C23.3277 22.4658 22.7922 22.505 22.2567 22.5439C22.2528 22.5916 22.2488 22.6392 22.2448 22.6884C22.2037 23.1877 22.1619 23.6869 22.1196 24.1861C22.1039 24.372 22.0885 24.558 22.0732 24.744C22.0512 25.0124 22.0284 25.2807 22.0055 25.5489C21.9989 25.6312 21.9923 25.7135 21.9855 25.7982C21.8709 27.1174 21.8709 27.1174 21.5575 27.4607C21.2709 27.6258 20.9792 27.7568 20.6713 27.8753C20.6103 27.8994 20.5494 27.9234 20.4866 27.9482C20.3582 27.9986 20.2298 28.0486 20.1012 28.0983C19.9054 28.1741 19.7102 28.2512 19.515 28.3285C19.3897 28.3775 19.2644 28.4265 19.1391 28.4753C19.0812 28.4982 19.0234 28.521 18.9637 28.5446C18.1699 28.8494 18.1699 28.8494 17.7596 28.7499C17.4686 28.5889 17.2275 28.3829 16.9798 28.1636C16.9276 28.1181 16.8753 28.0725 16.8214 28.0256C16.3896 27.6476 15.9663 27.2603 15.5448 26.8708C15.138 26.4965 14.7304 26.1292 14.2852 25.8011C13.9939 25.9312 13.7695 26.1013 13.5244 26.3046C13.4413 26.3735 13.3583 26.4423 13.2726 26.5132C13.0336 26.7141 12.7972 26.918 12.5612 27.1224C12.3588 27.2972 12.1554 27.4706 11.9514 27.6434C11.8505 27.7291 11.7499 27.8153 11.6498 27.902C11.5066 28.0251 11.3614 28.1455 11.2155 28.2654C11.1318 28.3357 11.0482 28.4059 10.962 28.4783C10.5932 28.6799 10.318 28.7093 9.91369 28.6297C9.46907 28.4774 9.04474 28.2884 8.61724 28.094C8.50201 28.0431 8.38672 27.9923 8.27137 27.9416C6.7383 27.2618 6.7383 27.2618 6.5708 26.8297C6.541 26.6504 6.541 26.6504 6.52909 26.4568C6.52423 26.3838 6.51937 26.3108 6.51437 26.2356C6.5099 26.1573 6.50542 26.079 6.50082 25.9983C6.49556 25.9169 6.49029 25.8355 6.48487 25.7516C6.46817 25.4914 6.45248 25.231 6.43687 24.9707C6.42075 24.7119 6.40443 24.4531 6.38794 24.1944C6.37776 24.0335 6.36782 23.8727 6.35817 23.7118C6.32871 23.2346 6.2843 22.7616 6.22794 22.2867C6.17197 22.2821 6.11601 22.2775 6.05835 22.2728C5.47558 22.2245 4.89302 22.1741 4.31054 22.1225C4.09317 22.1035 3.87576 22.085 3.6583 22.0671C3.34561 22.0413 3.03314 22.0135 2.72065 21.9854C2.62349 21.9778 2.52633 21.9702 2.42623 21.9623C1.56404 21.8812 1.56404 21.8812 1.25646 21.5153C1.12533 21.2748 1.12533 21.2748 1.01739 20.9997C0.977394 20.8994 0.937396 20.7992 0.896186 20.696C0.855967 20.5916 0.815748 20.4871 0.77431 20.3796C0.712987 20.2249 0.712987 20.2249 0.650425 20.0672C0.536559 19.779 0.42478 19.4902 0.313591 19.201C0.28603 19.131 0.258469 19.0611 0.230073 18.989C0.050766 18.5278 -0.0795943 18.1458 0.0564454 17.6581C0.306296 17.3077 0.609987 17.0188 0.913597 16.7152C1.03889 16.5651 1.16216 16.4134 1.28324 16.2599C1.64164 15.8135 2.02797 15.3985 2.42728 14.9888C2.68201 14.722 2.86297 14.5058 2.97076 14.1438C2.91165 14.0743 2.85253 14.0048 2.79163 13.9332C2.40648 13.4796 2.02263 13.0254 1.64753 12.5634C1.29401 12.1284 0.929699 11.7033 0.561884 11.2804C0.209821 10.8734 0.115931 10.6805 0.122647 10.1529C0.153766 9.81929 0.272178 9.54492 0.41136 9.24292C0.439085 9.18014 0.466809 9.11735 0.495375 9.05267C0.553787 8.92121 0.612888 8.79006 0.672649 8.65921C0.763729 8.45947 0.852366 8.25877 0.940718 8.0578C0.998055 7.92955 1.05553 7.80137 1.11315 7.67325C1.15268 7.58392 1.15268 7.58392 1.19301 7.49277C1.37195 7.10428 1.55159 6.7961 1.94218 6.60081C2.05604 6.58599 2.17048 6.57552 2.28502 6.56747C2.39112 6.55976 2.39112 6.55976 2.49937 6.55189C2.57615 6.54671 2.65292 6.54152 2.73203 6.53618C2.81136 6.5306 2.89069 6.52501 2.97243 6.51926C3.14095 6.50748 3.30949 6.49589 3.47804 6.48447C3.73315 6.46713 3.98821 6.44905 4.24326 6.43088C4.40738 6.41951 4.5715 6.40818 4.73562 6.3969C4.81084 6.39154 4.88606 6.38618 4.96355 6.38067C5.49991 6.34495 6.03333 6.33791 6.5708 6.34366C6.56925 6.2901 6.5677 6.23654 6.5661 6.18136C6.54713 5.3909 6.62576 4.60596 6.69845 3.8198C6.72087 3.57317 6.74126 3.32642 6.76165 3.07961C6.77603 2.9215 6.79053 2.76341 6.80517 2.60533C6.81377 2.49562 6.81377 2.49562 6.82254 2.38371C6.867 1.93515 6.94318 1.63103 7.25652 1.28645C7.46631 1.15322 7.68471 1.06299 7.91612 0.973719C7.98019 0.947811 8.04426 0.921903 8.11028 0.89521C8.24555 0.840994 8.38115 0.787586 8.51705 0.734946C8.72288 0.654884 8.92718 0.571615 9.13154 0.487887C10.5109 -0.0653774 10.5109 -0.0653774 11.1137 0.0864303Z" fill="#4A6880"/>
<path d="M32.9825 22.347C33.1061 22.346 33.2297 22.3443 33.3533 22.3417C33.5325 22.3381 33.7116 22.3367 33.8908 22.3358C33.9978 22.3346 34.1048 22.3333 34.2151 22.332C34.5748 22.3806 34.7505 22.483 35.0276 22.7152C35.1749 22.9242 35.1749 22.9242 35.2907 23.1558C35.3555 23.2829 35.3555 23.2829 35.4217 23.4126C35.4865 23.5447 35.4865 23.5447 35.5526 23.6795C35.5964 23.7662 35.6403 23.8529 35.6855 23.9423C35.8104 24.1898 35.9335 24.4381 36.0562 24.6866C36.1237 24.8219 36.1913 24.9572 36.2591 25.0924C36.3052 25.1848 36.3514 25.2772 36.399 25.3724C36.4759 25.3464 36.5528 25.3204 36.632 25.2937C36.92 25.197 37.2082 25.1013 37.4966 25.0061C37.6209 24.9649 37.7451 24.9234 37.8692 24.8814C38.0485 24.8209 38.2282 24.7617 38.408 24.7027C38.4625 24.684 38.5171 24.6652 38.5734 24.6459C38.9932 24.5103 39.5011 24.3946 39.9137 24.6013C39.9798 24.6674 39.9798 24.6674 40.0473 24.7348C40.13 24.8156 40.13 24.8156 40.2143 24.8979C40.3199 25.0055 40.3199 25.0055 40.4276 25.1152C40.5351 25.2191 40.6429 25.3227 40.7507 25.4263C40.8681 25.5403 40.9854 25.6545 41.1026 25.7688C41.1884 25.8518 41.1884 25.8518 41.2759 25.9364C41.8135 26.4706 41.8135 26.4706 41.8848 26.8295C41.8414 27.2418 41.752 27.6142 41.6219 28.0071C41.5874 28.1127 41.5529 28.2183 41.5173 28.327C41.4809 28.4368 41.4445 28.5466 41.408 28.6563C41.3361 28.8738 41.2647 29.0913 41.1934 29.3089C41.1616 29.4047 41.1298 29.5006 41.0971 29.5993C41.0194 29.8168 41.0194 29.8168 41.0276 30.001C41.1418 30.056 41.1418 30.056 41.2582 30.1122C41.5418 30.2493 41.8247 30.3878 42.1074 30.5268C42.2296 30.5866 42.352 30.646 42.4746 30.7051C42.6512 30.7903 42.8272 30.8768 43.0031 30.9636C43.0576 30.9895 43.1121 31.0154 43.1682 31.0421C43.5153 31.2156 43.7463 31.3777 43.9419 31.7153C43.9764 31.9546 43.9921 32.1594 43.9905 32.3983C43.991 32.4633 43.9916 32.5283 43.9921 32.5952C43.9927 32.7321 43.9924 32.869 43.9914 33.0058C43.9902 33.2147 43.9931 33.4233 43.9964 33.6322C43.9964 33.7656 43.9963 33.8989 43.9959 34.0323C43.997 34.0944 43.9981 34.1564 43.9993 34.2204C43.9935 34.5392 43.9551 34.6982 43.7593 34.9533C43.4995 35.1547 43.2472 35.3027 42.9525 35.4483C42.9003 35.4743 42.848 35.5003 42.7942 35.5272C42.6847 35.5815 42.575 35.6354 42.4651 35.689C42.2964 35.7711 42.1285 35.8546 41.9606 35.9383C41.1401 36.3439 41.1401 36.3439 40.9419 36.3439C40.9709 36.4291 40.9999 36.5142 41.0298 36.6019C41.1377 36.9196 41.2438 37.2377 41.3495 37.5561C41.3953 37.6935 41.4416 37.8308 41.4884 37.9679C41.5558 38.1656 41.6215 38.3638 41.6869 38.5622C41.708 38.6228 41.729 38.6835 41.7507 38.7459C41.8804 39.1462 41.8955 39.4384 41.7991 39.8583C41.7016 40.0247 41.7016 40.0247 41.5687 40.1636C41.5156 40.2196 41.4624 40.2757 41.4077 40.3334C41.3388 40.4029 41.27 40.4724 41.1991 40.544C41.1018 40.6454 41.0046 40.7469 40.9074 40.8483C40.8012 40.9577 40.6948 41.067 40.5883 41.1761C40.5115 41.2558 40.5115 41.2558 40.4331 41.337C39.9317 41.8419 39.9317 41.8419 39.5705 41.9154C39.1044 41.8746 38.7002 41.7854 38.2553 41.6339C38.1992 41.6149 38.1431 41.596 38.0853 41.5766C37.9087 41.5169 37.7324 41.4564 37.5562 41.3958C37.4354 41.3548 37.3147 41.3139 37.1939 41.2731C36.9001 41.1736 36.6066 41.0733 36.3133 40.9726C36.2902 41.0465 36.2671 41.1204 36.2433 41.1965C36.0701 41.6924 35.8245 42.1533 35.5901 42.6226C35.5393 42.7262 35.4886 42.8297 35.4379 42.9333C35.3892 43.031 35.3406 43.1287 35.2904 43.2293C35.2462 43.3185 35.2019 43.4077 35.1563 43.4996C35.0276 43.7155 35.0276 43.7155 34.7704 43.8869C34.5258 43.9068 34.2897 43.9171 34.0449 43.9187C33.9382 43.9199 33.9382 43.9199 33.8293 43.921C33.679 43.9223 33.5286 43.9231 33.3782 43.9234C33.1483 43.9244 32.9186 43.9286 32.6887 43.9329C32.5425 43.9337 32.3963 43.9344 32.2502 43.9348C32.1815 43.9364 32.1129 43.9381 32.0421 43.9398C31.7226 43.9373 31.5541 43.9242 31.3143 43.705C31.1581 43.4373 31.0115 43.1695 30.8744 42.8915C30.8483 42.8388 30.8221 42.7861 30.7952 42.7319C30.7126 42.5653 30.6308 42.3984 30.549 42.2315C30.4928 42.1178 30.4365 42.0041 30.3802 41.8905C30.243 41.6134 30.1065 41.3359 29.9704 41.0583C29.4901 41.1836 29.0144 41.316 28.544 41.4748C28.425 41.5148 28.425 41.5148 28.3036 41.5555C28.1417 41.6103 27.9801 41.6659 27.8188 41.7222C27.3615 41.874 27.0209 41.9661 26.5418 41.8297C26.3784 41.7353 26.3784 41.7353 26.2418 41.6047C26.186 41.5519 26.1302 41.4991 26.0727 41.4447C25.9654 41.3383 25.9654 41.3383 25.856 41.2297C25.7472 41.1241 25.6384 41.0185 25.5296 40.913C25.4115 40.7973 25.2935 40.6814 25.1757 40.5654C25.1178 40.5087 25.0599 40.4519 25.0002 40.3934C24.946 40.3393 24.8917 40.2851 24.8358 40.2293C24.7868 40.1806 24.7377 40.1319 24.6872 40.0817C24.4334 39.7826 24.4649 39.46 24.4846 39.0868C24.54 38.8671 24.5994 38.6605 24.6721 38.447C24.6911 38.3888 24.7102 38.3307 24.7298 38.2708C24.7901 38.0872 24.8516 37.904 24.9132 37.7207C24.9546 37.5955 24.9959 37.4702 25.0371 37.3449C25.1377 37.0395 25.2394 36.7345 25.3418 36.4297C25.2631 36.3908 25.1844 36.3519 25.1033 36.3119C24.8099 36.1666 24.5175 36.0196 24.2253 35.872C24.099 35.8085 23.9725 35.7455 23.8457 35.6829C23.6629 35.5927 23.4811 35.5008 23.2993 35.4084C23.2148 35.3674 23.2148 35.3674 23.1286 35.3256C22.744 35.1273 22.534 34.9318 22.3417 34.5439C22.2987 34.2484 22.2987 34.2484 22.2992 33.9275C22.2991 33.8703 22.299 33.813 22.2988 33.7541C22.299 33.6338 22.3 33.5136 22.3017 33.3934C22.3042 33.2101 22.3035 33.0271 22.3024 32.8438C22.307 31.8408 22.307 31.8408 22.5989 31.4582C23.0988 31.0341 23.7727 30.7756 24.356 30.4885C24.4511 30.4414 24.5461 30.3942 24.644 30.3457C24.8764 30.2305 25.109 30.1156 25.3418 30.001C25.1569 29.2888 24.9336 28.597 24.6853 27.9046C24.4025 27.0858 24.4025 27.0858 24.4846 26.6581C24.6568 26.401 24.8656 26.1899 25.0846 25.9724C25.1425 25.9125 25.2003 25.8526 25.2599 25.7909C25.4372 25.6084 25.6167 25.4285 25.7971 25.2491C25.8584 25.1875 25.9197 25.1259 25.9828 25.0625C26.0414 25.004 26.1 24.9455 26.1604 24.8852C26.2131 24.8325 26.2659 24.7799 26.3202 24.7257C26.5234 24.5391 26.6155 24.516 26.897 24.4981C27.2497 24.5164 27.5536 24.5931 27.8861 24.7027C27.9461 24.7217 28.0062 24.7408 28.068 24.7604C28.2578 24.8207 28.4471 24.8822 28.6364 24.9438C28.7658 24.9852 28.8952 25.0264 29.0247 25.0677C29.3402 25.1683 29.6554 25.27 29.9704 25.3724C30.0075 25.2963 30.0447 25.2202 30.083 25.1417C30.2216 24.8583 30.3611 24.5754 30.5009 24.2925C30.5611 24.1703 30.6212 24.0479 30.6809 23.9254C30.7671 23.7489 30.8541 23.5729 30.9414 23.3969C30.9677 23.3424 30.9941 23.2879 31.0212 23.2318C31.1762 22.9217 31.3314 22.6805 31.599 22.458C32.043 22.31 32.5177 22.3496 32.9825 22.347Z" fill="#4A6880"/>
<path d="M11.1137 0.0864303C11.3608 0.234089 11.3608 0.234089 11.553 0.434649C11.6244 0.505807 11.6957 0.576964 11.7693 0.650277C11.8358 0.718783 11.9023 0.787288 11.9708 0.857869C12.0768 0.953862 12.1839 1.04861 12.2923 1.1418C12.3737 1.21274 12.3737 1.21274 12.4567 1.28511C12.8718 1.6439 13.2887 2.00057 13.7056 2.35726C13.9561 2.57161 14.2063 2.78618 14.4566 3.00076C14.8247 2.88003 15.0455 2.7043 15.3245 2.43825C15.408 2.36005 15.4917 2.28204 15.5756 2.2042C15.6388 2.14547 15.6388 2.14547 15.7034 2.08555C15.9634 1.84904 16.2371 1.62981 16.5117 1.41067C16.708 1.25164 16.8989 1.08998 17.089 0.92383C17.2008 0.828611 17.3126 0.733408 17.4245 0.638224C17.4757 0.592162 17.5268 0.5461 17.5796 0.498643C17.9329 0.202781 18.1694 0.137337 18.6255 0.15003C18.945 0.184917 19.2147 0.290793 19.5071 0.419582C19.5678 0.445201 19.6284 0.470821 19.691 0.497216C19.818 0.551243 19.9448 0.605949 20.0712 0.661306C20.2638 0.745374 20.4574 0.826777 20.6512 0.907926C20.7752 0.961065 20.8992 1.01435 21.0232 1.06781C21.109 1.10386 21.109 1.10386 21.1966 1.14064C21.6141 1.32575 21.9765 1.5453 22.1612 1.97924C22.266 2.61999 22.3086 3.26349 22.3428 3.91119C22.353 4.10341 22.3642 4.29556 22.3755 4.48772C22.4157 5.19272 22.4388 5.89438 22.4281 6.60081C22.475 6.59906 22.5218 6.59732 22.5701 6.59553C23.368 6.58033 24.1583 6.65508 24.9519 6.72846C25.1986 6.75088 25.4453 6.77127 25.6921 6.79166C25.8502 6.80604 26.0083 6.82054 26.1664 6.83518C26.2395 6.84091 26.3127 6.84664 26.388 6.85255C26.8367 6.89702 27.1365 6.97827 27.4853 7.28653C27.6248 7.52294 27.6248 7.52294 27.7297 7.79312C27.769 7.89218 27.8084 7.99123 27.8489 8.09329C27.888 8.19655 27.9271 8.2998 27.9674 8.40619C28.0271 8.55759 28.0271 8.55759 28.088 8.71205C28.2037 9.00748 28.3165 9.30385 28.4282 9.60085C28.4625 9.69132 28.4969 9.78179 28.5323 9.87501C28.5634 9.95845 28.5946 10.0419 28.6267 10.1279C28.6541 10.201 28.6814 10.2742 28.7096 10.3496C28.8101 10.6673 28.805 10.8303 28.6853 11.1437C28.5112 11.3662 28.3249 11.5692 28.1295 11.7732C27.9231 11.9912 27.7362 12.2159 27.5496 12.4509C27.1885 12.8981 26.8026 13.3177 26.4077 13.7349C26.1799 13.9763 25.9624 14.2143 25.771 14.4866C25.9019 14.7804 26.0747 15.0059 26.2799 15.2527C26.3832 15.3772 26.3832 15.3772 26.4885 15.5042C26.7593 15.8272 27.0318 16.1487 27.3046 16.4701C28.6356 18.0396 28.6356 18.0396 28.6208 18.6533C28.5876 18.9742 28.4814 19.2436 28.3521 19.5371C28.3265 19.5978 28.3009 19.6585 28.2745 19.721C28.2205 19.8481 28.1658 19.9748 28.1104 20.1013C28.0264 20.2939 27.945 20.4874 27.8638 20.6812C27.8107 20.8053 27.7574 20.9293 27.7039 21.0532C27.6799 21.1105 27.6559 21.1677 27.6311 21.2267C27.4463 21.6434 27.2164 21.9926 26.7996 22.201C26.6545 22.2185 26.5088 22.2315 26.3631 22.2422C26.2721 22.2491 26.1812 22.2559 26.0875 22.263C25.989 22.2701 25.8905 22.2771 25.7891 22.2844C25.6885 22.2919 25.5879 22.2994 25.4842 22.3071C25.162 22.331 24.8397 22.3544 24.5174 22.3778C24.2993 22.3939 24.0812 22.41 23.8632 22.4262C23.3277 22.4658 22.7922 22.505 22.2567 22.5439C22.2528 22.5916 22.2488 22.6392 22.2448 22.6884C22.2037 23.1877 22.1619 23.6869 22.1196 24.1861C22.1039 24.372 22.0885 24.558 22.0732 24.744C22.0512 25.0124 22.0284 25.2807 22.0055 25.5489C21.9989 25.6312 21.9923 25.7135 21.9855 25.7982C21.8709 27.1174 21.8709 27.1174 21.5575 27.4607C21.2709 27.6258 20.9792 27.7568 20.6713 27.8753C20.6103 27.8994 20.5494 27.9234 20.4866 27.9482C20.3582 27.9986 20.2298 28.0486 20.1012 28.0983C19.9054 28.1741 19.7102 28.2512 19.515 28.3285C19.3897 28.3775 19.2644 28.4265 19.1391 28.4753C19.0812 28.4982 19.0234 28.521 18.9637 28.5446C18.1699 28.8494 18.1699 28.8494 17.7596 28.7499C17.4686 28.5889 17.2275 28.3829 16.9798 28.1636C16.9276 28.1181 16.8753 28.0725 16.8214 28.0256C16.3896 27.6476 15.9663 27.2603 15.5448 26.8708C15.138 26.4965 14.7304 26.1292 14.2852 25.8011C13.9939 25.9312 13.7695 26.1013 13.5244 26.3046C13.4413 26.3735 13.3583 26.4423 13.2726 26.5132C13.0336 26.7141 12.7972 26.918 12.5612 27.1224C12.3588 27.2972 12.1554 27.4706 11.9514 27.6434C11.8505 27.7291 11.7499 27.8153 11.6498 27.902C11.5066 28.0251 11.3614 28.1455 11.2155 28.2654C11.1318 28.3357 11.0482 28.4059 10.962 28.4783C10.5932 28.6799 10.318 28.7093 9.91369 28.6297C9.46907 28.4774 9.04474 28.2884 8.61724 28.094C8.50201 28.0431 8.38672 27.9923 8.27137 27.9416C6.7383 27.2618 6.7383 27.2618 6.5708 26.8297C6.541 26.6504 6.541 26.6504 6.52909 26.4568C6.52423 26.3838 6.51937 26.3108 6.51437 26.2356C6.5099 26.1573 6.50542 26.079 6.50082 25.9983C6.49556 25.9169 6.49029 25.8355 6.48487 25.7516C6.46817 25.4914 6.45248 25.231 6.43687 24.9707C6.42075 24.7119 6.40443 24.4531 6.38794 24.1944C6.37776 24.0335 6.36782 23.8727 6.35817 23.7118C6.32871 23.2346 6.2843 22.7616 6.22794 22.2867C6.17197 22.2821 6.11601 22.2775 6.05835 22.2728C5.47558 22.2245 4.89302 22.1741 4.31054 22.1225C4.09317 22.1035 3.87576 22.085 3.6583 22.0671C3.34561 22.0413 3.03314 22.0135 2.72065 21.9854C2.62349 21.9778 2.52633 21.9702 2.42623 21.9623C1.56404 21.8812 1.56404 21.8812 1.25646 21.5153C1.12533 21.2748 1.12533 21.2748 1.01739 20.9997C0.977394 20.8994 0.937396 20.7992 0.896186 20.696C0.855967 20.5916 0.815748 20.4871 0.77431 20.3796C0.712987 20.2249 0.712987 20.2249 0.650425 20.0672C0.536559 19.779 0.42478 19.4902 0.313591 19.201C0.28603 19.131 0.258469 19.0611 0.230073 18.989C0.050766 18.5278 -0.0795943 18.1458 0.0564454 17.6581C0.306296 17.3077 0.609987 17.0188 0.913597 16.7152C1.03889 16.5651 1.16216 16.4134 1.28324 16.2599C1.64164 15.8135 2.02797 15.3985 2.42728 14.9888C2.68201 14.722 2.86297 14.5058 2.97076 14.1438C2.91165 14.0743 2.85253 14.0048 2.79163 13.9332C2.40648 13.4796 2.02263 13.0254 1.64753 12.5634C1.29401 12.1284 0.929699 11.7033 0.561884 11.2804C0.209821 10.8734 0.115931 10.6805 0.122647 10.1529C0.153766 9.81929 0.272178 9.54492 0.41136 9.24292C0.439085 9.18014 0.466809 9.11735 0.495375 9.05267C0.553787 8.92121 0.612888 8.79006 0.672649 8.65921C0.763729 8.45947 0.852366 8.25877 0.940718 8.0578C0.998055 7.92955 1.05553 7.80137 1.11315 7.67325C1.15268 7.58392 1.15268 7.58392 1.19301 7.49277C1.37195 7.10428 1.55159 6.7961 1.94218 6.60081C2.05604 6.58599 2.17048 6.57552 2.28502 6.56747C2.39112 6.55976 2.39112 6.55976 2.49937 6.55189C2.57615 6.54671 2.65292 6.54152 2.73203 6.53618C2.81136 6.5306 2.89069 6.52501 2.97243 6.51926C3.14095 6.50748 3.30949 6.49589 3.47804 6.48447C3.73315 6.46713 3.98821 6.44905 4.24326 6.43088C4.40738 6.41951 4.5715 6.40818 4.73562 6.3969C4.81084 6.39154 4.88606 6.38618 4.96355 6.38067C5.49991 6.34495 6.03333 6.33791 6.5708 6.34366C6.56925 6.2901 6.5677 6.23654 6.5661 6.18136C6.54713 5.3909 6.62576 4.60596 6.69845 3.8198C6.72087 3.57317 6.74126 3.32642 6.76165 3.07961C6.77603 2.9215 6.79053 2.76341 6.80517 2.60533C6.81377 2.49562 6.81377 2.49562 6.82254 2.38371C6.867 1.93515 6.94318 1.63103 7.25652 1.28645C7.46631 1.15322 7.68471 1.06299 7.91612 0.973719C7.98019 0.947811 8.04426 0.921903 8.11028 0.89521C8.24555 0.840994 8.38115 0.787586 8.51705 0.734946C8.72288 0.654884 8.92718 0.571615 9.13154 0.487887C10.5109 -0.0653774 10.5109 -0.0653774 11.1137 0.0864303ZM10.0058 2.08568C9.85083 2.15081 9.69692 2.21843 9.54404 2.28825C9.46531 2.32178 9.38659 2.35532 9.30548 2.38987C8.94158 2.52675 8.94158 2.52675 8.62796 2.74361C8.60913 2.88571 8.59563 3.02853 8.58433 3.17143C8.57313 3.30835 8.57313 3.30835 8.5617 3.44804C8.55384 3.5475 8.54599 3.64695 8.53789 3.74943C8.52027 3.95814 8.50258 4.16685 8.48482 4.37555C8.45706 4.706 8.42975 5.03647 8.40365 5.36705C8.37834 5.68513 8.35112 6.003 8.3236 6.32089C8.31627 6.41966 8.30893 6.51842 8.30137 6.62018C8.22403 7.4831 8.22403 7.4831 7.85652 7.80082C7.55006 8.01162 7.33295 8.09219 6.96227 8.11077C6.87135 8.11589 6.78043 8.12102 6.68675 8.12631C6.5896 8.13061 6.49244 8.1349 6.39233 8.13933C6.29211 8.14467 6.19188 8.15002 6.08861 8.15552C5.76902 8.17231 5.44938 8.18748 5.12971 8.20261C4.91279 8.21372 4.69588 8.22494 4.47898 8.23626C3.94772 8.26377 3.41642 8.28995 2.88504 8.31511C2.80278 8.47951 2.72052 8.64391 2.63828 8.80831C2.59247 8.89986 2.54667 8.99141 2.49947 9.08574C2.457 9.17086 2.41452 9.25599 2.37075 9.3437C2.33971 9.40502 2.30867 9.46633 2.27669 9.52951C2.12224 9.85488 2.08285 10.0316 2.19932 10.3723C2.35471 10.5905 2.53304 10.7855 2.71361 10.983C2.81606 11.098 2.91841 11.2131 3.02065 11.3282C3.07088 11.3844 3.12111 11.4407 3.17287 11.4986C3.42261 11.7815 3.65855 12.0753 3.89588 12.3685C4.036 12.5406 4.17712 12.7115 4.31977 12.8815C4.37891 12.952 4.37891 12.952 4.43924 13.0239C4.55053 13.1563 4.66199 13.2886 4.77346 13.4209C5.00073 13.7018 5.04447 13.8523 5.05471 14.2081C5.05791 14.2801 5.06112 14.3521 5.06442 14.4264C4.98338 14.9408 4.57575 15.3096 4.2297 15.6759C4.14505 15.767 4.06045 15.858 3.9759 15.9491C3.93538 15.9927 3.89486 16.0362 3.85311 16.0811C3.66801 16.2811 3.48843 16.4856 3.31061 16.6921C3.16851 16.8563 3.02466 17.0184 2.88002 17.1803C2.78524 17.2878 2.69048 17.3952 2.59576 17.5027C2.54974 17.5537 2.50373 17.6047 2.45632 17.6572C2.11847 18.0336 2.11847 18.0336 2.02789 18.5153C2.10476 18.7881 2.20842 19.0466 2.31718 19.3081C2.35961 19.4145 2.35961 19.4145 2.4029 19.5231C2.51898 19.8576 2.51898 19.8576 2.71361 20.1438C2.84999 20.1631 2.98712 20.1771 3.12434 20.1888C3.21191 20.1966 3.29948 20.2043 3.3897 20.2123C3.53286 20.2245 3.53286 20.2245 3.67891 20.2369C3.87942 20.255 4.07993 20.2731 4.28043 20.2912C4.59771 20.3194 4.91502 20.3474 5.2324 20.3746C5.53788 20.401 5.84323 20.4287 6.14858 20.4566C6.24315 20.4644 6.33773 20.4721 6.43516 20.4801C7.01352 20.534 7.45716 20.6001 7.8823 21.0281C8.14625 21.4729 8.10725 22.0374 8.12974 22.5385C8.13596 22.6531 8.14231 22.7676 8.14878 22.8821C8.16774 23.2264 8.1837 23.5708 8.19938 23.9153C8.20434 24.0186 8.2093 24.1219 8.21441 24.2283C8.24086 24.7811 8.26446 25.3338 8.2851 25.8868C8.62697 26.0602 8.96993 26.2314 9.31368 26.4011C9.37533 26.4322 9.43699 26.4634 9.50051 26.4955C9.82488 26.6498 10.0021 26.6862 10.3423 26.5725C10.5421 26.4205 10.7249 26.2691 10.9101 26.1011C11.0175 26.0063 11.125 25.9117 11.2326 25.8171C11.3117 25.747 11.3117 25.747 11.3924 25.6755C11.6669 25.4345 11.9503 25.2047 12.2354 24.9764C12.4273 24.8197 12.6135 24.6601 12.7992 24.4962C13.7443 23.6771 13.7443 23.6771 14.2477 23.6582C14.8341 23.7084 15.2678 24.1872 15.6727 24.5743C16.0881 24.965 16.5154 25.3315 16.9604 25.6886C17.3984 26.0517 17.8123 26.4415 18.2281 26.8297C19.2413 26.5657 19.2413 26.5657 20.1138 26.0582C20.1376 25.8698 20.1561 25.6806 20.1724 25.4914C20.1775 25.4333 20.1826 25.3752 20.1879 25.3153C20.1989 25.1904 20.2097 25.0654 20.2203 24.9405C20.237 24.7459 20.2541 24.5514 20.2715 24.3569C20.3137 23.8824 20.3554 23.4079 20.3968 22.9333C20.4179 22.6945 20.4398 22.4558 20.462 22.2171C20.4677 22.1493 20.4735 22.0814 20.4794 22.0116C20.5275 21.5046 20.5781 21.2914 20.9624 20.9544C21.3689 20.6705 21.7708 20.6666 22.2543 20.6488C22.3882 20.6414 22.3882 20.6414 22.5248 20.6339C22.8086 20.6187 23.0924 20.6062 23.3763 20.5939C23.6605 20.5797 23.9446 20.565 24.2288 20.5501C24.4051 20.5411 24.5815 20.5326 24.758 20.5246C25.357 20.5081 25.357 20.5081 25.9424 20.401C26.0744 20.2597 26.0744 20.2597 26.1457 20.0702C26.1753 20.0028 26.205 19.9354 26.2356 19.8659C26.2643 19.795 26.2931 19.7241 26.3228 19.651C26.3539 19.5814 26.385 19.5118 26.417 19.44C26.535 19.1631 26.6265 18.9316 26.6332 18.6291C26.4991 18.3343 26.2969 18.1099 26.0817 17.8724C25.9875 17.7654 25.8933 17.6584 25.7991 17.5513C25.7513 17.4975 25.7035 17.4437 25.6543 17.3883C25.3251 17.0162 25.0048 16.6366 24.6875 16.2543C24.6081 16.1595 24.5278 16.0655 24.4467 15.9722C23.6625 15.0687 23.6625 15.0687 23.6281 14.5456C23.6838 14.0778 23.9157 13.7952 24.2281 13.458C24.2954 13.3828 24.3627 13.3076 24.432 13.23C24.579 13.0669 24.7269 12.9046 24.8757 12.7432C25.0988 12.5005 25.3158 12.2532 25.5319 12.0042C25.7764 11.7256 26.0262 11.4518 26.2756 11.1775C26.3353 11.1098 26.3951 11.0421 26.4567 10.9723C26.5226 10.9003 26.5884 10.8282 26.6563 10.754C26.8178 10.562 26.8178 10.562 26.7919 10.3693C26.7679 10.3119 26.7439 10.2546 26.7192 10.1955C26.693 10.13 26.6668 10.0645 26.6399 9.99695C26.5916 9.88573 26.5916 9.88573 26.5424 9.77228C26.5058 9.68134 26.4693 9.59041 26.4316 9.49672C26.28 9.04695 26.28 9.04695 26.0281 8.65798C25.8891 8.63916 25.7494 8.62566 25.6095 8.61434C25.5203 8.60688 25.431 8.59941 25.339 8.59172C25.193 8.57993 25.193 8.57993 25.0441 8.56791C24.8397 8.55028 24.6353 8.53259 24.4308 8.51484C24.1074 8.4871 23.7839 8.45979 23.4603 8.43366C23.1488 8.40832 22.8375 8.38112 22.5262 8.35362C22.4298 8.34628 22.3333 8.33895 22.2339 8.33139C21.7163 8.28411 21.3653 8.23605 20.9709 7.88654C20.6725 7.43891 20.7028 6.95246 20.6913 6.42966C20.6829 6.05631 20.6682 5.68326 20.654 5.31009C20.6474 5.11346 20.6426 4.91676 20.6394 4.72005C20.6761 3.61611 20.6761 3.61611 20.2273 2.67512C19.9588 2.54056 19.7205 2.4646 19.4281 2.40075C19.3143 2.34798 19.2015 2.29306 19.0906 2.23467C18.7867 2.12925 18.7007 2.12634 18.3995 2.22932C18.1813 2.3847 17.9863 2.56303 17.7888 2.74361C17.6738 2.84606 17.5587 2.9484 17.4436 3.05064C17.3873 3.10088 17.3311 3.15111 17.2732 3.20287C16.9902 3.45267 16.6964 3.6887 16.4029 3.92588C16.2315 4.06564 16.0619 4.20667 15.8933 4.34977C15.8467 4.38919 15.8001 4.42862 15.7521 4.46924C15.6209 4.58039 15.4901 4.69192 15.3593 4.80346C15.0801 5.02059 14.8608 5.07338 14.5155 5.08471C14.4522 5.08792 14.3889 5.09112 14.3237 5.09442C13.8079 5.00476 13.4205 4.56587 13.053 4.21684C12.9545 4.12459 12.856 4.0324 12.7574 3.94028C12.7104 3.89627 12.6634 3.85227 12.6149 3.80693C12.4036 3.6108 12.1861 3.42209 11.9678 3.23379C11.6926 2.99302 11.4246 2.74419 11.1559 2.49617C11.0854 2.4364 11.0149 2.37662 10.9423 2.31503C10.8294 2.20896 10.8294 2.20896 10.7143 2.10074C10.3845 1.95265 10.3329 1.97157 10.0058 2.08568Z" fill="#2A3D4F"/>
<path d="M32.9825 22.347C33.1061 22.346 33.2297 22.3443 33.3533 22.3417C33.5325 22.3381 33.7116 22.3367 33.8908 22.3358C33.9978 22.3346 34.1048 22.3333 34.2151 22.332C34.5748 22.3806 34.7505 22.483 35.0276 22.7152C35.1749 22.9242 35.1749 22.9242 35.2907 23.1558C35.3555 23.2829 35.3555 23.2829 35.4217 23.4126C35.4865 23.5447 35.4865 23.5447 35.5526 23.6795C35.5964 23.7662 35.6403 23.8529 35.6855 23.9423C35.8104 24.1898 35.9335 24.4381 36.0562 24.6866C36.1237 24.8219 36.1913 24.9572 36.2591 25.0924C36.3052 25.1848 36.3514 25.2772 36.399 25.3724C36.4759 25.3464 36.5528 25.3204 36.632 25.2937C36.92 25.197 37.2082 25.1013 37.4966 25.0061C37.6209 24.9649 37.7451 24.9234 37.8692 24.8814C38.0485 24.8209 38.2282 24.7617 38.408 24.7027C38.4625 24.684 38.5171 24.6652 38.5734 24.6459C38.9932 24.5103 39.5011 24.3946 39.9137 24.6013C39.9798 24.6674 39.9798 24.6674 40.0473 24.7348C40.13 24.8156 40.13 24.8156 40.2143 24.8979C40.3199 25.0055 40.3199 25.0055 40.4276 25.1152C40.5351 25.2191 40.6429 25.3227 40.7507 25.4263C40.8681 25.5403 40.9854 25.6545 41.1026 25.7688C41.1884 25.8518 41.1884 25.8518 41.2759 25.9364C41.8135 26.4706 41.8135 26.4706 41.8848 26.8295C41.8414 27.2418 41.752 27.6142 41.6219 28.0071C41.5874 28.1127 41.5529 28.2183 41.5173 28.327C41.4809 28.4368 41.4445 28.5466 41.408 28.6563C41.3361 28.8738 41.2647 29.0913 41.1934 29.3089C41.1616 29.4047 41.1298 29.5006 41.0971 29.5993C41.0194 29.8168 41.0194 29.8168 41.0276 30.001C41.1418 30.056 41.1418 30.056 41.2582 30.1122C41.5418 30.2493 41.8247 30.3878 42.1074 30.5268C42.2296 30.5866 42.352 30.646 42.4746 30.7051C42.6512 30.7903 42.8272 30.8768 43.0031 30.9636C43.0576 30.9895 43.1121 31.0154 43.1682 31.0421C43.5153 31.2156 43.7463 31.3777 43.9419 31.7153C43.9764 31.9546 43.9921 32.1594 43.9905 32.3983C43.991 32.4633 43.9916 32.5283 43.9921 32.5952C43.9927 32.7321 43.9924 32.869 43.9914 33.0058C43.9902 33.2147 43.9931 33.4233 43.9964 33.6322C43.9964 33.7656 43.9963 33.8989 43.9959 34.0323C43.997 34.0944 43.9981 34.1564 43.9993 34.2204C43.9935 34.5392 43.9551 34.6982 43.7593 34.9533C43.4995 35.1547 43.2472 35.3027 42.9525 35.4483C42.9003 35.4743 42.848 35.5003 42.7942 35.5272C42.6847 35.5815 42.575 35.6354 42.4651 35.689C42.2964 35.7711 42.1285 35.8546 41.9606 35.9383C41.1401 36.3439 41.1401 36.3439 40.9419 36.3439C40.9709 36.4291 40.9999 36.5142 41.0298 36.6019C41.1377 36.9196 41.2438 37.2377 41.3495 37.5561C41.3953 37.6935 41.4416 37.8308 41.4884 37.9679C41.5558 38.1656 41.6215 38.3638 41.6869 38.5622C41.708 38.6228 41.729 38.6835 41.7507 38.7459C41.8804 39.1462 41.8955 39.4384 41.7991 39.8583C41.7016 40.0247 41.7016 40.0247 41.5687 40.1636C41.5156 40.2196 41.4624 40.2757 41.4077 40.3334C41.3388 40.4029 41.27 40.4724 41.1991 40.544C41.1018 40.6454 41.0046 40.7469 40.9074 40.8483C40.8012 40.9577 40.6948 41.067 40.5883 41.1761C40.5115 41.2558 40.5115 41.2558 40.4331 41.337C39.9317 41.8419 39.9317 41.8419 39.5705 41.9154C39.1044 41.8746 38.7002 41.7854 38.2553 41.6339C38.1992 41.6149 38.1431 41.596 38.0853 41.5766C37.9087 41.5169 37.7324 41.4564 37.5562 41.3958C37.4354 41.3548 37.3147 41.3139 37.1939 41.2731C36.9001 41.1736 36.6066 41.0733 36.3133 40.9726C36.2902 41.0465 36.2671 41.1204 36.2433 41.1965C36.0701 41.6924 35.8245 42.1533 35.5901 42.6226C35.5393 42.7262 35.4886 42.8297 35.4379 42.9333C35.3892 43.031 35.3406 43.1287 35.2904 43.2293C35.2462 43.3185 35.2019 43.4077 35.1563 43.4996C35.0276 43.7155 35.0276 43.7155 34.7704 43.8869C34.5258 43.9068 34.2897 43.9171 34.0449 43.9187C33.9382 43.9199 33.9382 43.9199 33.8293 43.921C33.679 43.9223 33.5286 43.9231 33.3782 43.9234C33.1483 43.9244 32.9186 43.9286 32.6887 43.9329C32.5425 43.9337 32.3963 43.9344 32.2502 43.9348C32.1815 43.9364 32.1129 43.9381 32.0421 43.9398C31.7226 43.9373 31.5541 43.9242 31.3143 43.705C31.1581 43.4373 31.0115 43.1695 30.8744 42.8915C30.8483 42.8388 30.8221 42.7861 30.7952 42.7319C30.7126 42.5653 30.6308 42.3984 30.549 42.2315C30.4928 42.1178 30.4365 42.0041 30.3802 41.8905C30.243 41.6134 30.1065 41.3359 29.9704 41.0583C29.4901 41.1836 29.0144 41.316 28.544 41.4748C28.425 41.5148 28.425 41.5148 28.3036 41.5555C28.1417 41.6103 27.9801 41.6659 27.8188 41.7222C27.3615 41.874 27.0209 41.9661 26.5418 41.8297C26.3784 41.7353 26.3784 41.7353 26.2418 41.6047C26.186 41.5519 26.1302 41.4991 26.0727 41.4447C25.9654 41.3383 25.9654 41.3383 25.856 41.2297C25.7472 41.1241 25.6384 41.0185 25.5296 40.913C25.4115 40.7973 25.2935 40.6814 25.1757 40.5654C25.1178 40.5087 25.0599 40.4519 25.0002 40.3934C24.946 40.3393 24.8917 40.2851 24.8358 40.2293C24.7868 40.1806 24.7377 40.1319 24.6872 40.0817C24.4334 39.7826 24.4649 39.46 24.4846 39.0868C24.54 38.8671 24.5994 38.6605 24.6721 38.447C24.6911 38.3888 24.7102 38.3307 24.7298 38.2708C24.7901 38.0872 24.8516 37.904 24.9132 37.7207C24.9546 37.5955 24.9959 37.4702 25.0371 37.3449C25.1377 37.0395 25.2394 36.7345 25.3418 36.4297C25.2631 36.3908 25.1844 36.3519 25.1033 36.3119C24.8099 36.1666 24.5175 36.0196 24.2253 35.872C24.099 35.8085 23.9725 35.7455 23.8457 35.6829C23.6629 35.5927 23.4811 35.5008 23.2993 35.4084C23.2148 35.3674 23.2148 35.3674 23.1286 35.3256C22.744 35.1273 22.534 34.9318 22.3417 34.5439C22.2987 34.2484 22.2987 34.2484 22.2992 33.9275C22.2991 33.8703 22.299 33.813 22.2988 33.7541C22.299 33.6338 22.3 33.5136 22.3017 33.3934C22.3042 33.2101 22.3035 33.0271 22.3024 32.8438C22.307 31.8408 22.307 31.8408 22.5989 31.4582C23.0988 31.0341 23.7727 30.7756 24.356 30.4885C24.4511 30.4414 24.5461 30.3942 24.644 30.3457C24.8764 30.2305 25.109 30.1156 25.3418 30.001C25.1569 29.2888 24.9336 28.597 24.6853 27.9046C24.4025 27.0858 24.4025 27.0858 24.4846 26.6581C24.6568 26.401 24.8656 26.1899 25.0846 25.9724C25.1425 25.9125 25.2003 25.8526 25.2599 25.7909C25.4372 25.6084 25.6167 25.4285 25.7971 25.2491C25.8584 25.1875 25.9197 25.1259 25.9828 25.0625C26.0414 25.004 26.1 24.9455 26.1604 24.8852C26.2131 24.8325 26.2659 24.7799 26.3202 24.7257C26.5234 24.5391 26.6155 24.516 26.897 24.4981C27.2497 24.5164 27.5536 24.5931 27.8861 24.7027C27.9461 24.7217 28.0062 24.7408 28.068 24.7604C28.2578 24.8207 28.4471 24.8822 28.6364 24.9438C28.7658 24.9852 28.8952 25.0264 29.0247 25.0677C29.3402 25.1683 29.6554 25.27 29.9704 25.3724C30.0075 25.2963 30.0447 25.2202 30.083 25.1417C30.2216 24.8583 30.3611 24.5754 30.5009 24.2925C30.5611 24.1703 30.6212 24.0479 30.6809 23.9254C30.7671 23.7489 30.8541 23.5729 30.9414 23.3969C30.9677 23.3424 30.9941 23.2879 31.0212 23.2318C31.1762 22.9217 31.3314 22.6805 31.599 22.458C32.043 22.31 32.5177 22.3496 32.9825 22.347ZM32.6275 24.1723C32.5376 24.3437 32.4476 24.515 32.3576 24.6863C32.2799 24.8339 32.202 24.9813 32.1239 25.1286C31.9382 25.4789 31.7549 25.8295 31.5819 26.1863C31.5385 26.2737 31.5385 26.2737 31.4942 26.3628C31.416 26.5204 31.3395 26.679 31.2631 26.8376C31.0316 27.1607 30.8674 27.2406 30.4847 27.3438C29.7064 27.3888 28.931 27.005 28.2141 26.7492C28.1142 26.7145 28.0144 26.6798 27.9115 26.644C27.8213 26.6118 27.731 26.5796 27.638 26.5464C27.3948 26.4856 27.2855 26.4811 27.0561 26.5724C26.8805 26.682 26.8805 26.682 26.7239 26.8295C26.6693 26.8755 26.6147 26.9214 26.5585 26.9688C26.3585 27.3662 26.577 27.788 26.707 28.1893C26.8271 28.5457 26.9516 28.9004 27.0778 29.2547C27.275 29.8259 27.413 30.2729 27.2315 30.8695C26.983 31.2176 26.6858 31.3506 26.3061 31.5332C26.1595 31.6068 26.0129 31.6804 25.8664 31.7541C25.793 31.7904 25.7197 31.8267 25.6441 31.8641C25.3202 32.0261 25.0015 32.1972 24.6828 32.3689C24.5771 32.4254 24.4715 32.4819 24.3657 32.5383C24.2549 32.5976 24.2549 32.5976 24.1417 32.6582C24.1417 33.0259 24.1417 33.3936 24.1417 33.7725C24.223 33.8118 24.3043 33.8511 24.3881 33.8916C24.6909 34.0383 24.9929 34.1864 25.2948 34.3349C25.4253 34.3988 25.556 34.4624 25.6869 34.5256C25.8755 34.6168 26.0633 34.7093 26.2511 34.8021C26.3094 34.8298 26.3676 34.8576 26.4276 34.8863C26.845 35.0948 27.1042 35.326 27.3132 35.7439C27.3313 36.5707 26.9941 37.3331 26.7186 38.0969C26.6839 38.1961 26.6492 38.2953 26.6134 38.3974C26.5812 38.4867 26.549 38.5759 26.5158 38.6679C26.4515 38.9345 26.4591 39.0846 26.5418 39.344C26.6779 39.5212 26.6779 39.5212 26.8471 39.6708C26.902 39.7226 26.957 39.7744 27.0135 39.8278C27.0559 39.8661 27.0982 39.9045 27.1418 39.944C27.6089 39.8291 28.0669 39.6951 28.5209 39.5362C28.5989 39.5091 28.6768 39.482 28.7571 39.4542C28.9132 39.3995 29.069 39.3439 29.2244 39.2872C29.8163 39.0809 30.3321 38.9545 30.929 39.1983C31.2873 39.5417 31.4739 39.946 31.69 40.3886C31.7767 40.5613 31.8634 40.734 31.9502 40.9066C31.9915 40.9896 32.0329 41.0727 32.0755 41.1582C32.2502 41.5018 32.4377 41.8371 32.6275 42.1726C32.9953 42.1726 33.363 42.1726 33.7418 42.1726C33.8724 41.9262 34.0027 41.6798 34.1329 41.4333C34.1719 41.3597 34.211 41.2861 34.2512 41.2103C34.4315 40.8687 34.6095 40.527 34.7744 40.1777C34.8003 40.1233 34.8262 40.0689 34.8529 40.0128C34.9216 39.8671 34.9889 39.7207 35.056 39.5743C35.2265 39.2997 35.3265 39.2051 35.6276 39.0868C36.3717 38.9896 37.023 39.2722 37.7115 39.5208C37.886 39.5834 38.0606 39.6457 38.2357 39.7068C38.3933 39.762 38.5506 39.8185 38.7077 39.875C38.9644 39.9424 39.0731 39.9584 39.3133 39.8583C39.4889 39.7486 39.4889 39.7486 39.6455 39.6011C39.7001 39.5552 39.7546 39.5092 39.8109 39.4618C40.0106 39.065 39.7935 38.6445 39.6624 38.2441C39.5421 37.8919 39.4183 37.541 39.2916 37.191C38.9203 36.1222 38.9203 36.1222 39.0562 35.6582C39.3417 35.2471 39.6323 35.0282 40.0861 34.8155C40.1424 34.7878 40.1986 34.7602 40.2566 34.7318C40.4345 34.6448 40.6132 34.5595 40.7919 34.4743C40.9717 34.3872 41.1513 34.2997 41.3309 34.2121C41.4422 34.158 41.5538 34.1042 41.6654 34.0507C41.9212 33.9382 41.9212 33.9382 42.1419 33.7725C42.1481 33.5851 42.1491 33.3975 42.1473 33.21C42.1465 33.1073 42.1457 33.0047 42.1449 32.8989C42.1439 32.8195 42.143 32.74 42.1419 32.6582C41.9422 32.5434 41.7422 32.4292 41.5419 32.3153C41.4808 32.2805 41.4197 32.2456 41.3567 32.2097C41.0375 32.0298 40.7172 31.8579 40.3861 31.7009C40.3248 31.6717 40.2635 31.6425 40.2003 31.6123C40.0832 31.5573 39.9656 31.5034 39.8474 31.451C39.4514 31.2644 39.2414 31.0848 39.0562 30.6867C38.9405 29.8918 39.2916 29.1608 39.5601 28.4259C39.6219 28.2552 39.6823 28.084 39.7426 27.9127C39.7978 27.7611 39.7978 27.7611 39.8541 27.6065C39.9357 27.3522 39.9357 27.3522 39.845 27.1461C39.7385 26.9962 39.6351 26.8535 39.5115 26.717C39.4723 26.6714 39.4331 26.6258 39.3927 26.5787C39.131 26.4328 38.9163 26.5194 38.6276 26.5724C38.4378 26.6269 38.2492 26.6861 38.0621 26.7495C37.9581 26.784 37.854 26.8186 37.7468 26.8541C37.5841 26.9089 37.4214 26.9637 37.2588 27.0189C37.1 27.0726 36.9409 27.1254 36.7817 27.1781C36.6877 27.2098 36.5936 27.2416 36.4968 27.2744C36.1002 27.3767 35.8234 27.3957 35.4505 27.2199C35.1214 26.9334 34.9653 26.6284 34.7758 26.2402C34.7394 26.1684 34.703 26.0965 34.6655 26.0225C34.5564 25.8064 34.449 25.5894 34.3418 25.3724C34.2791 25.2476 34.2163 25.123 34.1533 24.9984C34.0146 24.7238 33.8783 24.4482 33.7418 24.1723C33.3741 24.1723 33.0064 24.1723 32.6275 24.1723Z" fill="#2A3D4F"/>
<path d="M17.7383 9.47699C19.1018 10.4938 20.0297 11.8406 20.285 13.5438C20.3438 14.3437 20.3463 15.1713 20.1135 15.9438C20.0863 16.0369 20.059 16.1299 20.0308 16.2257C19.5521 17.7056 18.5915 18.8696 17.2461 19.6534C15.7928 20.3592 14.0675 20.6008 12.5229 20.069C11.0503 19.526 9.78578 18.5593 9.05629 17.1438C8.38871 15.6221 8.155 13.9745 8.75763 12.3853C9.46605 10.7223 10.5808 9.54369 12.2529 8.83513C12.3294 8.80496 12.406 8.7748 12.4849 8.74372C12.5517 8.71621 12.6186 8.68869 12.6875 8.66035C14.3438 8.09239 16.3184 8.51261 17.7383 9.47699Z" fill="#2B3E50"/>
<path d="M35.3822 28.9405C36.5479 29.5598 37.3477 30.5658 37.7803 31.8026C37.8772 32.1247 37.9328 32.4088 37.943 32.7441C37.9493 32.831 37.9556 32.9178 37.9621 33.0073C38.02 34.3356 37.5199 35.4739 36.684 36.4888C35.9148 37.3181 34.7235 37.9081 33.5919 37.9986C32.0627 38.0031 30.7925 37.6034 29.6885 36.5096C28.6185 35.3482 28.3759 34.0976 28.4286 32.5727C28.4996 31.43 29.1653 30.3538 29.9892 29.5958C31.5756 28.3067 33.5301 28.0954 35.3822 28.9405Z" fill="#2B3E50"/>
<path d="M16.3418 10.7151C16.4468 10.7709 16.4468 10.7709 16.5538 10.8279C17.5614 11.4345 18.1198 12.3633 18.4847 13.458C18.6161 14.8621 18.4353 16.0148 17.5419 17.1437C17.501 17.1963 17.4601 17.2489 17.418 17.3031C16.8727 17.9224 15.8551 18.45 15.0353 18.5352C14.0849 18.5873 13.2391 18.5823 12.399 18.0866C12.331 18.0494 12.263 18.0121 12.193 17.9738C11.2215 17.3909 10.6875 16.5413 10.3324 15.491C10.0312 14.2332 10.2863 13.0661 10.9522 11.9804C11.3773 11.3556 11.9022 10.9734 12.5704 10.6294C12.6715 10.5758 12.6715 10.5758 12.7746 10.5212C13.8847 10.0254 15.2896 10.1524 16.3418 10.7151Z" fill="#E6E3F2"/>
<path d="M34.9994 30.7581C35.6459 31.3034 36.0886 31.9447 36.1753 32.8008C36.1903 33.6942 36.0706 34.4345 35.5221 35.1761C35.2115 35.4726 34.8865 35.7012 34.5149 35.9154C34.4641 35.9449 34.4133 35.9744 34.3609 36.0048C33.7435 36.2957 32.8742 36.2771 32.2217 36.1133C32.029 36.0332 31.8618 35.9424 31.6863 35.8297C31.6278 35.7943 31.5692 35.7589 31.5089 35.7225C30.9199 35.3284 30.436 34.7119 30.2292 34.0296C30.1076 33.0641 30.1601 32.1817 30.7435 31.3725C31.7974 30.0199 33.6011 29.7922 34.9994 30.7581Z" fill="#E5E2F1"/>
</g>
<defs>
<clipPath id="clip0_134_38">
<rect width="44" height="44" fill="white"/>
</clipPath>
</defs>
</svg>
