<svg width="256" height="256" viewBox="0 0 256 256" fill="none" xmlns="http://www.w3.org/2000/svg">
<g clip-path="url(#clip0_16_3)">
<path fill-rule="evenodd" clip-rule="evenodd" d="M0 128L128 0.000187804L144 16.0002L160 32.0001L168 40.0001L39.9999 168L32 160L16 144L0 128ZM47.9999 176L55.9999 184L63.9999 192L71.9999 200L79.9999 208L208 80.0001L200 72.0001L192 64.0001L184 56.0001L176 48.0001L47.9999 176ZM87.9999 216L216 88.0001L224 96.0001L240 112L256 128L128 256L112 240L95.9999 224L87.9999 216Z" fill="white"/>
</g>
<defs>
<clipPath id="clip0_16_3">
<rect width="256" height="256" fill="white"/>
</clipPath>
</defs>
</svg>
